<?xml version="1.0" encoding="utf-8"?>
<!-- Generator: Adobe Illustrator 19.0.0, SVG Export Plug-In . SVG Version: 6.00 Build 0)  -->
<svg version="1.1" id="Layer_1" xmlns="http://www.w3.org/2000/svg" xmlns:xlink="http://www.w3.org/1999/xlink" x="0px" y="0px"
	 viewBox="0 0 960 560" style="enable-background:new 0 0 960 560;" xml:space="preserve">
<style type="text/css">
	.st0{fill:#FF9000;}
	.st1{fill:#FFFFFF;}
	.st2{fill:#2D86FE;}
</style>
<g id="XMLID_1_">
	<g id="XMLID_2_">
		<path id="XMLID_3_" class="st0" d="M187.5,175.9l61.5,42.1v-84.7H43.5c-9.7,0-17.5,7.8-17.5,17.5V314l42.1,11.9
			c2.2,0.6,4.4-0.7,5.1-2.8l10.5-38c0.7-2.7,3.9-3.9,6.3-2.3l100.7,69.3c3.8,2.6,1,8.6-3.4,7.3l-77.6-21.7c-2.2-0.6-4.5,0.7-5,2.9
			l-10.3,38c-0.7,2.7-4,3.9-6.3,2.3L26,337.9v88.8h204.1c10.4,0,18.8-8.5,18.8-18.8V242.4l-41.6-11.6c-2.2-0.6-4.4,0.7-5,2.8
			l-10.8,38.1c-0.8,2.7-3.9,3.8-6.3,2.3L84.4,204.6c-3.8-2.6-1-8.6,3.4-7.3l77.6,21.7c2.2,0.6,4.4-0.7,5-2.8l10.8-38.1
			C182,175.5,185.1,174.3,187.5,175.9z"/>
	</g>
	<g id="XMLID_9_">
		<path id="XMLID_10_" class="st1" d="M399.7,175l-31.6,1.6c0-4.3-1.3-7.6-3.8-10.1c-2.5-2.5-6-3.7-10.5-3.7c-3.8,0-6.9,0.9-9.2,2.8
			c-2.3,1.9-3.4,4.5-3.4,7.8c0,3,1.3,5.3,4,6.9c2.9,1.5,8.2,3.2,15.9,5.1c14,3.7,24.2,8.3,30.7,13.7c6.5,5.4,9.7,12.9,9.7,22.4
			c0,12.6-4.2,22.1-12.7,28.5c-8.6,6.3-19.4,9.5-32.4,9.5c-14.9,0-26.9-3.5-36.1-10.6c-9.1-7.2-13.6-17.2-13.5-30l31.6-1.6
			c-0.1,4.6,1.5,8.3,4.9,11.1c3.4,2.8,7.7,4.2,13.1,4.2c9,0,13.5-3.2,13.5-9.6c0-2.8-1.6-5.2-4.6-7.1c-3.1-2-8.3-3.9-15.7-5.9
			c-11.8-2.9-21.1-6.6-27.9-11.1c-8-5.2-12-13.5-12-24.7c0-11.1,3.7-20.3,11.2-27.4c7.6-7.3,18.4-10.9,32.4-10.9
			c13.9,0,25.1,3.5,33.7,10.4C395.2,153.3,399.5,162.8,399.7,175z"/>
		<path id="XMLID_12_" class="st1" d="M507.2,137.8H538v69c0,16.6-4.7,29.5-14.1,38.8c-9.3,9.3-22.2,14-38.8,14
			c-16.7,0-29.7-4.7-39.1-14c-9.4-9.3-14.1-22.2-14.1-38.8v-69h31v68.5c0,17.2,7.4,25.8,22.3,25.8c14.8,0,22.1-8.6,22.1-25.8V137.8z
			"/>
		<path id="XMLID_14_" class="st1" d="M673.3,257.8h-35L617,217.7h-13.1v40.1h-31v-120h54.2c12.3,0,22,3.6,29.2,10.7
			c7.2,7.1,10.7,16.9,10.7,29.3c0,16.4-6,27.9-18,34.6L673.3,257.8z M603.9,165.2v25h19.6c3.8,0,6.8-1.1,9-3.4
			c2.1-2.2,3.2-5.3,3.2-9.1c0-3.8-1.1-6.9-3.2-9.1c-2.1-2.2-5.1-3.4-9-3.4H603.9z"/>
		<path id="XMLID_17_" class="st1" d="M761.4,189.4h58.5v9.9c0,17.9-5.2,32.3-15.7,43.5c-10.5,11.1-24.6,16.7-42.5,16.7
			c-18.3,0-33.3-5.6-45.1-16.7c-11.5-11-17.3-26-17.3-45.1c0-19,5.8-34.1,17.3-45.1c11.8-11.1,26.8-16.7,45.1-16.7
			c14.2,0,26.4,3.6,36.4,10.7c10,7.1,16.9,17,20.5,29.7l-32.1,5.3c-3.8-12.2-12.2-18.3-25.2-18.3c-9.8,0-17.4,2.9-22.6,8.7
			c-5.2,5.8-7.9,14.3-7.9,25.7c0,11.3,2.6,19.9,7.9,25.7c5.2,5.8,12.8,8.7,22.6,8.7c11.9,0,19.8-5.1,23.9-15.2h-23.9V189.4z"/>
		<path id="XMLID_19_" class="st1" d="M931,137.8v27.4h-47.6v18h40.7V210h-40.7v20.4h47.8v27.4h-78.7v-120H931z"/>
	</g>
	<g id="XMLID_20_">
		<path id="XMLID_24_" class="st2" d="M335,320v9.8h-17.1v6.3h13.6v9.8h-13.6V363h-11.1v-43H335z"/>
		<path id="XMLID_26_" class="st2" d="M375.7,363h-12.5l-7.7-14.4h-4.7V363h-11.1v-43h19.5c4.4,0,7.9,1.3,10.5,3.8
			c2.6,2.6,3.9,6.1,3.9,10.5c0,5.9-2.2,10-6.4,12.4L375.7,363z M350.7,329.8v9h7c1.4,0,2.5-0.4,3.2-1.2c0.8-0.8,1.1-1.9,1.1-3.3
			c0-1.4-0.4-2.5-1.1-3.3c-0.8-0.8-1.8-1.2-3.2-1.2H350.7z"/>
		<path id="XMLID_29_" class="st2" d="M408.1,320v9.8H391v6.4h14.6v9.6H391v7.3h17.1v9.8h-28.3v-43H408.1z"/>
		<path id="XMLID_31_" class="st2" d="M441.8,320v9.8h-17.1v6.4h14.6v9.6h-14.6v7.3h17.1v9.8h-28.3v-43H441.8z"/>
		<path id="XMLID_33_" class="st2" d="M498.2,355.9l-5.8,7.7l-6.4-5.2c-3.5,3.5-7.9,5.2-13,5.2c-5.1,0-9.1-1.2-11.9-3.6
			c-2.7-2.4-4.1-5.4-4.1-9.1c0-4.5,2.1-8.2,6.2-11.2c-2.1-2.5-3.2-5-3.2-7.7c0-4,1.3-7.1,3.9-9.3c2.6-2.2,6.1-3.3,10.5-3.3
			c3.8,0,7.1,1,9.6,3.1c2.6,2.1,4.2,4.9,4.8,8.5l-10.8,0.9c-0.3-2.4-1.5-3.6-3.7-3.6c-1,0-1.9,0.3-2.4,0.9c-0.6,0.6-0.9,1.5-0.9,2.6
			c0,1.2,0.5,2.2,1.4,3.2c0.1,0.1,0.2,0.2,0.2,0.2c0.1,0.1,0.1,0.1,0.2,0.2c0,0.1,0.1,0.1,0.1,0.2c0.1,0.1,0.1,0.1,0.2,0.2
			c0.1,0.1,0.2,0.2,0.3,0.3c0.3,0.3,0.5,0.4,0.6,0.5c0.8,0.6,1.2,0.9,1.3,1l7.9,6.4c0.5-1.4,1-3.2,1.5-5.5l9.8,2.5
			c-0.9,3.5-2,6.6-3.3,9.4L498.2,355.9z M473.2,354.3c1.9,0,3.7-0.6,5.3-1.9l-8.4-6.8c-1.2,1.1-1.8,2.5-1.8,4.4
			c0,1.4,0.4,2.4,1.3,3.2C470.5,353.9,471.7,354.3,473.2,354.3z"/>
		<path id="XMLID_36_" class="st2" d="M532.7,319.3c6.7,0,12.2,2,16.3,6.1c4.3,4,6.4,9.4,6.4,16.1s-2.1,12-6.4,16.1
			c-4.2,4-9.6,6-16.3,6c-6.8,0-12.3-2-16.5-6c-4.2-4.1-6.3-9.5-6.3-16.1c0-6.7,2.1-12,6.3-16.1C520.4,321.4,525.9,319.3,532.7,319.3
			z M532.7,329.2c-3.5,0-6.3,1.1-8.4,3.3c-2.1,2.2-3.1,5.2-3.1,9c0,3.8,1,6.8,3.1,9c2.1,2.2,4.9,3.3,8.4,3.3c3.5,0,6.3-1.1,8.3-3.3
			c2.1-2.2,3.1-5.2,3.1-9c0-3.8-1-6.8-3.1-9C539,330.3,536.2,329.2,532.7,329.2z"/>
		<path id="XMLID_41_" class="st2" d="M560.6,363v-43h19.7c4.4,0,7.9,1.3,10.5,3.9c2.6,2.6,3.9,6.1,3.9,10.5c0,4.4-1.3,7.9-3.9,10.5
			c-2.6,2.5-6,3.8-10.4,3.8h-8.6V363H560.6z M578.9,329.8h-7.2v9.1h7.2c1.3,0,2.4-0.4,3.2-1.2c0.8-0.8,1.2-1.9,1.2-3.3
			c0-1.4-0.4-2.5-1.2-3.3C581.3,330.2,580.2,329.8,578.9,329.8z"/>
		<path id="XMLID_44_" class="st2" d="M626.6,320v9.8h-17.1v6.4h14.6v9.6h-14.6v7.3h17.1v9.8h-28.3v-43H626.6z"/>
		<path id="XMLID_46_" class="st2" d="M632.2,319.1l24.6,21V320h11.1v43.9l-24.6-20.9V363h-11.1V319.1z"/>
		<path id="XMLID_48_" class="st2" d="M717.4,333.3l-11.3,0.6c0-1.5-0.5-2.7-1.4-3.6c-0.9-0.9-2.2-1.3-3.8-1.3c-1.4,0-2.5,0.3-3.3,1
			c-0.8,0.7-1.2,1.6-1.2,2.8c0,1.1,0.5,1.9,1.4,2.5c1,0.5,2.9,1.2,5.7,1.8c5,1.3,8.7,3,11,4.9c2.3,1.9,3.5,4.6,3.5,8
			c0,4.5-1.5,7.9-4.5,10.2c-3.1,2.3-6.9,3.4-11.6,3.4c-5.3,0-9.6-1.3-12.9-3.8c-3.3-2.6-4.9-6.2-4.8-10.8l11.3-0.6
			c0,1.7,0.5,3,1.8,4c1.2,1,2.8,1.5,4.7,1.5c3.2,0,4.8-1.2,4.8-3.5c0-1-0.6-1.9-1.7-2.6c-1.1-0.7-3-1.4-5.6-2.1c-4.2-1-7.6-2.4-10-4
			c-2.9-1.9-4.3-4.8-4.3-8.9c0-4,1.3-7.3,4-9.8c2.7-2.6,6.6-3.9,11.6-3.9c5,0,9,1.2,12.1,3.7C715.8,325.5,717.3,328.9,717.4,333.3z"
			/>
		<path id="XMLID_51_" class="st2" d="M744.4,319.3c6.7,0,12.2,2,16.3,6.1c4.3,4,6.4,9.4,6.4,16.1s-2.1,12-6.4,16.1
			c-4.2,4-9.6,6-16.3,6c-6.8,0-12.3-2-16.5-6c-4.2-4.1-6.3-9.5-6.3-16.1c0-6.7,2.1-12,6.3-16.1C732.1,321.4,737.6,319.3,744.4,319.3
			z M744.4,329.2c-3.5,0-6.3,1.1-8.4,3.3c-2.1,2.2-3.1,5.2-3.1,9c0,3.8,1,6.8,3.1,9c2.1,2.2,4.9,3.3,8.4,3.3c3.5,0,6.3-1.1,8.3-3.3
			c2.1-2.2,3.1-5.2,3.1-9c0-3.8-1-6.8-3.1-9C750.6,330.3,747.9,329.2,744.4,329.2z"/>
		<path id="XMLID_54_" class="st2" d="M799,320h11v24.7c0,5.9-1.7,10.6-5.1,13.9c-3.3,3.3-8,5-13.9,5c-6,0-10.7-1.7-14-5
			c-3.4-3.3-5.1-8-5.1-13.9V320H783v24.6c0,6.2,2.7,9.3,8,9.3c5.3,0,7.9-3.1,7.9-9.3V320z"/>
		<path id="XMLID_56_" class="st2" d="M852.2,363h-12.5l-7.7-14.4h-4.7V363h-11.1v-43h19.5c4.4,0,7.9,1.3,10.5,3.8
			c2.6,2.6,3.9,6.1,3.9,10.5c0,5.9-2.2,10-6.4,12.4L852.2,363z M827.3,329.8v9h7c1.4,0,2.5-0.4,3.2-1.2c0.8-0.8,1.1-1.9,1.1-3.3
			c0-1.4-0.4-2.5-1.1-3.3c-0.8-0.8-1.8-1.2-3.2-1.2H827.3z"/>
		<path id="XMLID_59_" class="st2" d="M877.5,319.3c5.4,0,10,1.5,13.9,4.5c3.9,3,6.2,7.1,7,12.1l-11.6,1.1c-1.2-5.3-4.5-7.9-9.7-7.9
			c-3.2,0-5.8,1.1-7.7,3.4c-1.9,2.2-2.9,5.2-2.9,8.9c0,3.9,1,6.9,2.9,9.1c2,2.2,4.5,3.3,7.7,3.3c2.6,0,4.7-0.7,6.4-2
			s2.8-3.3,3.3-5.8l11.6,1c-0.8,5.1-3.1,9.2-7,12.3c-3.8,3-8.5,4.5-13.9,4.5c-6.6,0-12-2-16.2-6c-4.1-4-6.2-9.3-6.2-16.2
			c0-6.8,2.1-12.2,6.2-16.2C865.6,321.3,871,319.3,877.5,319.3z"/>
		<path id="XMLID_61_" class="st2" d="M931.6,320v9.8h-17.1v6.4h14.6v9.6h-14.6v7.3h17.1v9.8h-28.3v-43H931.6z"/>
	</g>
	<g id="XMLID_21_">
		<path id="XMLID_63_" class="st2" d="M343.4,382.6v43h-11.1v-17h-14.4v17h-11.1v-43h11.1v16.2h14.4v-16.2H343.4z"/>
		<path id="XMLID_65_" class="st2" d="M389.5,382.6l-16.3,27.3v15.8h-11.1v-15.8l-16.3-27.3h12.9l9,16.2l9-16.2H389.5z"/>
		<path id="XMLID_67_" class="st2" d="M391.8,425.7v-43H411c4.3,0,7.6,1,10.1,3.1c2.5,2.1,3.7,5.1,3.7,9.1c0,3.1-1.2,5.8-3.5,8.1
			c1.6,0.8,2.8,2.1,3.8,3.8c0.9,1.7,1.4,3.7,1.4,6c0,4.1-1.3,7.2-3.9,9.5c-2.6,2.3-6.1,3.4-10.5,3.4H391.8z M409.7,392.4h-6.8v6.5
			h6.7c2.6,0,3.9-1.1,3.9-3.2C413.5,393.5,412.2,392.4,409.7,392.4z M410.8,408.4h-7.8v7.4h7.9c2.9,0,4.3-1.2,4.3-3.7
			C415.1,409.6,413.7,408.4,410.8,408.4z"/>
		<path id="XMLID_71_" class="st2" d="M467.3,425.7h-12.5l-7.7-14.4h-4.7v14.4h-11.1v-43h19.5c4.4,0,7.9,1.3,10.5,3.8
			c2.6,2.6,3.9,6.1,3.9,10.5c0,5.9-2.2,10-6.4,12.4L467.3,425.7z M442.4,392.4v9h7c1.4,0,2.5-0.4,3.2-1.2c0.8-0.8,1.1-1.9,1.1-3.3
			c0-1.4-0.4-2.5-1.1-3.3c-0.8-0.8-1.8-1.2-3.2-1.2H442.4z"/>
		<path id="XMLID_74_" class="st2" d="M481.9,382.6v43h-11.1v-43H481.9z"/>
		<path id="XMLID_76_" class="st2" d="M487.6,425.7v-43h18.2c6.4,0,11.6,1.9,15.7,5.8c4.1,3.8,6.1,9.1,6.1,15.7
			c0,6.6-2,11.9-6.1,15.7c-4.1,3.9-9.3,5.8-15.7,5.8H487.6z M506,392.2h-7.3v23.9h7.3c3.4,0,6-1,7.9-3c1.8-2,2.8-5,2.8-8.9
			c0-4-0.9-6.9-2.8-8.9C512,393.2,509.4,392.2,506,392.2z"/>
		<path id="XMLID_79_" class="st2" d="M574.5,396l-11.3,0.6c0-1.5-0.5-2.7-1.4-3.6c-0.9-0.9-2.2-1.3-3.8-1.3c-1.4,0-2.5,0.3-3.3,1
			c-0.8,0.7-1.2,1.6-1.2,2.8c0,1.1,0.5,1.9,1.4,2.5c1,0.5,2.9,1.2,5.7,1.8c5,1.3,8.7,3,11,4.9c2.3,1.9,3.5,4.6,3.5,8
			c0,4.5-1.5,7.9-4.5,10.2c-3.1,2.3-6.9,3.4-11.6,3.4c-5.3,0-9.6-1.3-12.9-3.8c-3.3-2.6-4.9-6.2-4.8-10.8l11.3-0.6
			c0,1.7,0.5,3,1.8,4c1.2,1,2.8,1.5,4.7,1.5c3.2,0,4.8-1.2,4.8-3.5c0-1-0.6-1.9-1.7-2.6c-1.1-0.7-3-1.4-5.6-2.1c-4.2-1-7.6-2.4-10-4
			c-2.9-1.9-4.3-4.8-4.3-8.9c0-4,1.3-7.3,4-9.8c2.7-2.6,6.6-3.9,11.6-3.9c5,0,9,1.2,12.1,3.7C572.9,388.2,574.4,391.6,574.5,396z"/>
		<path id="XMLID_81_" class="st2" d="M619.6,382.6l-16.3,27.3v15.8h-11.1v-15.8l-16.3-27.3h12.9l9,16.2l9-16.2H619.6z"/>
		<path id="XMLID_83_" class="st2" d="M622,381.7l24.6,21v-20.1h11.1v43.9l-24.6-20.9v20.1H622V381.7z"/>
		<path id="XMLID_85_" class="st2" d="M698.7,382.6v9.8h-13.4v33.2h-11.1v-33.2h-13.5v-9.8H698.7z"/>
		<path id="XMLID_87_" class="st2" d="M738.3,382.6v43h-11.1v-17h-14.4v17h-11.1v-43h11.1v16.2h14.4v-16.2H738.3z"/>
		<path id="XMLID_89_" class="st2" d="M772.2,382.6v9.8h-17.1v6.4h14.6v9.6h-14.6v7.3h17.1v9.8H744v-43H772.2z"/>
		<path id="XMLID_91_" class="st2" d="M808.9,396l-11.3,0.6c0-1.5-0.5-2.7-1.4-3.6c-0.9-0.9-2.2-1.3-3.8-1.3c-1.4,0-2.5,0.3-3.3,1
			c-0.8,0.7-1.2,1.6-1.2,2.8c0,1.1,0.5,1.9,1.4,2.5c1,0.5,2.9,1.2,5.7,1.8c5,1.3,8.7,3,11,4.9c2.3,1.9,3.5,4.6,3.5,8
			c0,4.5-1.5,7.9-4.5,10.2c-3.1,2.3-6.9,3.4-11.6,3.4c-5.3,0-9.6-1.3-12.9-3.8c-3.3-2.6-4.9-6.2-4.8-10.8l11.3-0.6
			c0,1.7,0.5,3,1.8,4c1.2,1,2.8,1.5,4.7,1.5c3.2,0,4.8-1.2,4.8-3.5c0-1-0.6-1.9-1.7-2.6c-1.1-0.7-3-1.4-5.6-2.1c-4.2-1-7.6-2.4-10-4
			c-2.9-1.9-4.3-4.8-4.3-8.9c0-4,1.3-7.3,4-9.8c2.7-2.6,6.6-3.9,11.6-3.9c5,0,9,1.2,12.1,3.7C807.3,388.2,808.9,391.6,808.9,396z"/>
		<path id="XMLID_93_" class="st2" d="M824.8,382.6v43h-11.1v-43H824.8z"/>
		<path id="XMLID_95_" class="st2" d="M861.2,382.6l-16.4,33.2H861v9.8h-32.9l16.4-33.2h-15.8v-9.8H861.2z"/>
		<path id="XMLID_97_" class="st2" d="M893.1,382.6v9.8H876v6.4h14.6v9.6H876v7.3h17.1v9.8h-28.3v-43H893.1z"/>
		<path id="XMLID_99_" class="st2" d="M934,425.7h-12.5l-7.7-14.4h-4.7v14.4H898v-43h19.5c4.4,0,7.9,1.3,10.5,3.8
			c2.6,2.6,3.9,6.1,3.9,10.5c0,5.9-2.2,10-6.4,12.4L934,425.7z M909.1,392.4v9h7c1.4,0,2.5-0.4,3.2-1.2c0.8-0.8,1.1-1.9,1.1-3.3
			c0-1.4-0.4-2.5-1.1-3.3c-0.8-0.8-1.8-1.2-3.2-1.2H909.1z"/>
	</g>
</g>
</svg>
