<svg width="512" height="512" viewBox="0 0 512 512" fill="none" xmlns="http://www.w3.org/2000/svg">
<g clip-path="url(#clip0_202_72)">
<mask id="mask0_202_72" style="mask-type:luminance" maskUnits="userSpaceOnUse" x="0" y="0" width="512" height="512">
<path d="M512 0H0V512H512V0Z" fill="white"/>
</mask>
<g mask="url(#mask0_202_72)">
<path d="M0 0H512V512H0V0Z" fill="black"/>
<path d="M336.8 130.685L435.2 181.883V78.88H106.4C90.8799 78.88 78.3999 88.3655 78.3999 100.162V298.627L145.76 313.098C149.28 313.829 152.8 312.246 153.92 309.693L170.72 263.482C171.84 260.198 176.96 258.739 180.8 260.685L341.92 344.96C348 348.122 343.52 355.418 336.48 353.837L212.32 327.448C208.8 326.718 205.12 328.299 204.32 330.974L187.84 377.186C186.72 380.47 181.44 381.93 177.76 379.982L78.3999 327.691V435.68H404.96C421.6 435.68 435.04 425.344 435.04 412.818V211.555L368.48 197.448C364.96 196.719 361.44 198.3 360.48 200.854L343.2 247.187C341.92 250.47 336.96 251.808 333.12 249.984L171.84 165.587C165.76 162.425 170.24 155.129 177.28 156.71L301.44 183.099C304.96 183.828 308.48 182.247 309.44 179.694L326.72 133.361C328 130.199 332.96 128.74 336.8 130.685Z" fill="#FF9000"/>
</g>
</g>
<defs>
<clipPath id="clip0_202_72">
<rect width="512" height="512" fill="white"/>
</clipPath>
</defs>
</svg>
