<svg version="1.1" id="Layer_1" xmlns="http://www.w3.org/2000/svg" xmlns:xlink="http://www.w3.org/1999/xlink" x="0px" y="0px"
	 width="136.333px" height="136.334px" viewBox="-5 0.5 136.333 136.334" enable-background="new -5 0.5 136.333 136.334"
	 xml:space="preserve">
<circle fill="#FFFFFF" cx="63.061" cy="68.842" r="22.176"/>
<circle cx="22.027" cy="45.533" r="19.176"/>
<circle fill="none" cx="22.027" cy="45.533" r="18.176"/>
<circle fill="#FFFFFF" cx="22.025" cy="45.533" r="17.176"/>
<circle cx="63.062" cy="116.613" r="19.176"/>
<circle fill="none" cx="63.062" cy="116.613" r="18.176"/>
<circle fill="#FFFFFF" cx="63.06" cy="116.613" r="17.176"/>
<circle fill="#FFFFFF" cx="104.099" cy="92.92" r="20.176"/>
<circle cx="104.099" cy="92.92" r="18.176"/>
<circle fill="#FFFFFF" cx="22.027" cy="92.92" r="20.176"/>
<circle cx="22.027" cy="92.92" r="18.176"/>
<circle cx="104.102" cy="45.533" r="19.176"/>
<circle fill="none" cx="104.102" cy="45.533" r="18.176"/>
<circle fill="#FFFFFF" cx="104.1" cy="45.533" r="17.176"/>
<circle fill="#FFFFFF" cx="63.061" cy="21.842" r="20.176"/>
<circle cx="63.061" cy="21.842" r="18.176"/>
<rect x="59" y="41.25" fill="#FFFFFF" width="8" height="28"/>
<rect x="61" y="37.25" width="4" height="32"/>
<rect x="46.732" y="62.249" transform="matrix(0.5 0.866 -0.866 0.5 91.3975 -5.811)" fill="#FFFFFF" width="8" height="28.001"/>
<rect x="47" y="61.251" transform="matrix(0.4999 0.8661 -0.8661 0.4999 91.4083 -3.8064)" width="4.001" height="31.999"/>
<rect x="61.269" y="72.25" transform="matrix(0.866 0.5 -0.5 0.866 48.2094 -27.4188)" fill="#FFFFFF" width="28" height="8"/>
<rect x="61.001" y="75.25" transform="matrix(0.866 0.5 -0.5 0.866 48.9435 -28.151)" width="31.999" height="4"/>
<rect x="35.554" y="57.915" transform="matrix(0.866 0.5 -0.5 0.866 37.686 -16.8167)" width="29.34" height="8"/>
<rect x="33.071" y="59.25" transform="matrix(0.866 0.5 -0.5 0.866 37.1998 -16.3298)" fill="#FFFFFF" width="32.001" height="4"/>
<rect x="59" y="69.25" width="8" height="30"/>
<rect x="61" y="69.25" fill="#FFFFFF" width="4" height="32"/>
<rect x="71.821" y="46.919" transform="matrix(0.5 0.866 -0.866 0.5 91.3618 -34.8019)" width="8" height="29.61"/>
<rect x="74.856" y="45.126" transform="matrix(0.5 0.866 -0.866 0.5 91.3682 -35.9961)" fill="#FFFFFF" width="4" height="32"/>
<circle cx="63.061" cy="68.842" r="20.176"/>
<circle fill="#FF9100" cx="63.061" cy="68.842" r="18.176"/>
</svg>
