<svg width="666" height="179" viewBox="0 0 666 179" fill="none" xmlns="http://www.w3.org/2000/svg">
<g clip-path="url(#clip0_325_6635)">
<mask id="mask0_325_6635" style="mask-type:luminance" maskUnits="userSpaceOnUse" x="0" y="0" width="666" height="179">
<path d="M666 0H0V179H666V0Z" fill="white"/>
</mask>
<g mask="url(#mask0_325_6635)">
<path fill-rule="evenodd" clip-rule="evenodd" d="M98.7142 26.2495L136.305 51.7907V0.404922H10.6966C4.76762 0.404922 0 5.13703 0 11.0218V110.032L25.7329 117.252C27.0776 117.616 28.4224 116.827 28.8502 115.553L35.2682 92.499C35.696 90.8609 37.652 90.1329 39.1189 91.1036L100.67 133.147C102.993 134.724 101.281 138.364 98.592 137.575L51.1602 124.41C49.8155 124.046 48.4097 124.835 48.1041 126.17L41.8084 149.224C41.3805 150.862 39.3634 151.59 37.9576 150.619L0 124.532V178.405H124.753C131.11 178.405 136.244 173.248 136.244 166.999V66.5937L110.817 59.5562C109.472 59.1922 108.127 59.9809 107.76 61.2549L101.159 84.3694C100.67 86.0075 98.7753 86.6748 97.3084 85.7648L35.696 43.6612C33.3733 42.0838 35.0848 38.4438 37.7742 39.2324L85.2059 52.3974C86.5507 52.7614 87.8954 51.9727 88.2621 50.6987L94.8634 27.5842C95.3524 26.0068 97.2472 25.2788 98.7142 26.2495Z" fill="#FF9000"/>
<path d="M447.355 125.738L432.41 112.963V139.668H439.165V127.453L454.11 140.193V113.488H447.355V125.738ZM311.325 140.053L314.86 135.363L310.765 132.038C311.558 130.335 312.235 128.433 312.795 126.333L306.81 124.828C306.507 126.205 306.203 127.313 305.9 128.153L301.07 124.233C301 124.163 300.732 123.953 300.265 123.603C300.242 123.557 300.125 123.452 299.915 123.288C299.845 123.218 299.781 123.16 299.722 123.113C299.664 123.067 299.617 123.026 299.582 122.991C299.547 122.956 299.518 122.921 299.495 122.886C299.472 122.851 299.437 122.81 299.39 122.763L299.25 122.623C298.69 122.063 298.41 121.422 298.41 120.698C298.41 120.022 298.591 119.491 298.952 119.106C299.314 118.721 299.81 118.528 300.44 118.528C301.747 118.528 302.493 119.263 302.68 120.733L309.225 120.173C308.852 117.957 307.877 116.224 306.302 114.976C304.727 113.727 302.773 113.103 300.44 113.103C297.733 113.103 295.598 113.78 294.035 115.133C292.472 116.487 291.69 118.377 291.69 120.803C291.69 122.437 292.332 124 293.615 125.493C291.095 127.337 289.835 129.612 289.835 132.318C289.835 134.535 290.663 136.378 292.32 137.848C294 139.318 296.403 140.053 299.53 140.053C302.657 140.053 305.293 139.003 307.44 136.903L311.325 140.053ZM351.125 113.103C355.208 113.103 358.522 114.34 361.065 116.813C363.655 119.263 364.95 122.518 364.95 126.578C364.95 130.638 363.655 133.905 361.065 136.378C358.522 138.828 355.208 140.053 351.125 140.053C347.018 140.053 343.67 138.828 341.08 136.378C338.513 133.882 337.23 130.615 337.23 126.578C337.23 122.518 338.513 119.263 341.08 116.813C343.647 114.34 346.995 113.103 351.125 113.103ZM499.545 121.608L492.65 121.958C492.65 121.025 492.376 120.29 491.828 119.753C491.279 119.217 490.515 118.948 489.535 118.948C488.695 118.948 488.024 119.152 487.522 119.561C487.021 119.969 486.77 120.535 486.77 121.258C486.77 121.912 487.062 122.413 487.645 122.763C488.275 123.09 489.43 123.463 491.11 123.883C494.167 124.7 496.401 125.697 497.813 126.876C499.224 128.054 499.93 129.682 499.93 131.758C499.93 134.512 499.008 136.588 497.165 137.988C495.298 139.365 492.942 140.053 490.095 140.053C486.852 140.053 484.227 139.283 482.22 137.743C480.237 136.18 479.257 133.998 479.28 131.198L486.175 130.848C486.152 131.852 486.507 132.662 487.242 133.281C487.977 133.899 488.928 134.208 490.095 134.208C492.055 134.208 493.035 133.508 493.035 132.108C493.035 131.502 492.697 130.982 492.02 130.551C491.343 130.119 490.2 129.693 488.59 129.273C486.023 128.643 483.993 127.838 482.5 126.858C480.75 125.715 479.875 123.918 479.875 121.468C479.875 119.042 480.692 117.047 482.325 115.483C483.982 113.897 486.338 113.103 489.395 113.103C492.428 113.103 494.878 113.862 496.745 115.378C498.565 116.872 499.498 118.948 499.545 121.608ZM532.835 116.813C530.292 114.34 526.978 113.103 522.895 113.103C518.765 113.103 515.417 114.34 512.85 116.813C510.283 119.263 509 122.518 509 126.578C509 130.615 510.283 133.882 512.85 136.378C515.44 138.828 518.788 140.053 522.895 140.053C526.978 140.053 530.292 138.828 532.835 136.378C535.425 133.905 536.72 130.638 536.72 126.578C536.72 122.518 535.425 119.263 532.835 116.813ZM624.69 113.103C627.98 113.103 630.792 114.013 633.125 115.833C635.482 117.677 636.905 120.138 637.395 123.218L630.325 123.883C629.578 120.687 627.618 119.088 624.445 119.088C622.485 119.088 620.916 119.771 619.737 121.136C618.559 122.501 617.97 124.315 617.97 126.578C617.97 128.935 618.565 130.772 619.755 132.091C620.945 133.409 622.508 134.068 624.445 134.068C626.008 134.068 627.303 133.654 628.33 132.826C629.357 131.997 630.022 130.813 630.325 129.273L637.395 129.868C636.905 132.972 635.482 135.457 633.125 137.323C630.792 139.143 627.98 140.053 624.69 140.053C620.7 140.053 617.422 138.84 614.855 136.413C612.335 134.01 611.075 130.732 611.075 126.578C611.075 122.425 612.335 119.147 614.855 116.743C617.422 114.317 620.7 113.103 624.69 113.103ZM179.46 113.488V119.473H169.065V123.288H177.36V129.273H169.065V139.668H162.31V113.488H179.46ZM211.14 139.668H203.51L198.855 130.918H195.985V139.668H189.23V113.488H201.06C203.743 113.488 205.867 114.264 207.43 115.816C208.993 117.367 209.775 119.497 209.775 122.203C209.775 125.773 208.468 128.293 205.855 129.763L211.14 139.668ZM237.78 119.473V113.488H220.63V139.668H237.815V133.683H227.385V129.238H236.275V123.393H227.385V119.473H237.78ZM265.26 113.488V119.473H254.865V123.393H263.755V129.238H254.865V133.683H265.295V139.668H248.11V113.488H265.26ZM386.97 113.488H375V139.668H381.755V130.953H386.97C389.63 130.953 391.742 130.183 393.305 128.643C394.892 127.057 395.685 124.922 395.685 122.238C395.685 119.532 394.903 117.397 393.34 115.833C391.777 114.27 389.653 113.488 386.97 113.488ZM422.08 113.488V119.473H411.685V123.393H420.575V129.238H411.685V133.683H422.115V139.668H404.93V113.488H422.08ZM563.045 113.488H569.765V128.538C569.765 132.155 568.738 134.978 566.685 137.008C564.655 139.038 561.832 140.053 558.215 140.053C554.575 140.053 551.728 139.038 549.675 137.008C547.622 134.978 546.595 132.155 546.595 128.538V113.488H553.35V128.433C553.35 132.19 554.972 134.068 558.215 134.068C561.435 134.068 563.045 132.19 563.045 128.433V113.488ZM594.725 139.668H602.355L597.07 129.763C599.683 128.293 600.99 125.773 600.99 122.203C600.99 119.497 600.208 117.367 598.645 115.816C597.082 114.264 594.958 113.488 592.275 113.488H580.445V139.668H587.2V130.918H590.07L594.725 139.668ZM664.49 119.473V113.488H647.34V139.668H664.525V133.683H654.095V129.238H662.985V123.393H654.095V119.473H664.49ZM351.125 119.088C348.978 119.088 347.275 119.759 346.015 121.101C344.755 122.442 344.125 124.268 344.125 126.578C344.125 128.888 344.755 130.714 346.015 132.056C347.275 133.397 348.978 134.068 351.125 134.068C353.248 134.068 354.934 133.397 356.182 132.056C357.431 130.714 358.055 128.888 358.055 126.578C358.055 124.268 357.431 122.442 356.182 121.101C354.934 119.759 353.248 119.088 351.125 119.088ZM517.785 121.101C519.045 119.759 520.748 119.088 522.895 119.088C525.018 119.088 526.704 119.759 527.952 121.101C529.201 122.442 529.825 124.268 529.825 126.578C529.825 128.888 529.201 130.714 527.952 132.056C526.704 133.397 525.018 134.068 522.895 134.068C520.748 134.068 519.045 133.397 517.785 132.056C516.525 130.714 515.895 128.888 515.895 126.578C515.895 124.268 516.525 122.442 517.785 121.101ZM195.985 119.473V124.933H200.255C201.095 124.933 201.748 124.688 202.215 124.198C202.682 123.708 202.915 123.043 202.915 122.203C202.915 121.363 202.682 120.698 202.215 120.208C201.748 119.718 201.095 119.473 200.255 119.473H195.985ZM381.755 119.473H386.13C386.947 119.473 387.6 119.718 388.09 120.208C388.58 120.698 388.825 121.375 388.825 122.238C388.825 123.102 388.58 123.778 388.09 124.268C387.6 124.758 386.947 125.003 386.13 125.003H381.755V119.473ZM591.47 124.933H587.2V119.473H591.47C592.31 119.473 592.963 119.718 593.43 120.208C593.897 120.698 594.13 121.363 594.13 122.203C594.13 123.043 593.897 123.708 593.43 124.198C592.963 124.688 592.31 124.933 591.47 124.933ZM302.855 133.193C301.875 133.963 300.802 134.348 299.635 134.348C298.725 134.348 298.002 134.121 297.465 133.666C296.928 133.211 296.66 132.563 296.66 131.723C296.66 130.603 297.022 129.717 297.745 129.063L302.855 133.193Z" fill="#2D86FE"/>
<path d="M433.775 164.238L418.83 151.463V178.168H425.585V165.953L440.53 178.693V151.988H433.775V164.238ZM369.05 160.458L375.945 160.108C375.898 157.448 374.965 155.372 373.145 153.878C371.278 152.362 368.828 151.603 365.795 151.603C362.738 151.603 360.382 152.397 358.725 153.983C357.092 155.547 356.275 157.542 356.275 159.968C356.275 162.418 357.15 164.215 358.9 165.358C360.393 166.338 362.423 167.143 364.99 167.773C366.6 168.193 367.743 168.619 368.42 169.051C369.097 169.482 369.435 170.002 369.435 170.608C369.435 172.008 368.455 172.708 366.495 172.708C365.328 172.708 364.378 172.399 363.643 171.781C362.908 171.162 362.552 170.352 362.575 169.348L355.68 169.698C355.657 172.498 356.637 174.68 358.62 176.243C360.627 177.783 363.252 178.553 366.495 178.553C369.342 178.553 371.698 177.865 373.565 176.488C375.408 175.088 376.33 173.012 376.33 170.258C376.33 168.182 375.624 166.554 374.213 165.376C372.801 164.197 370.567 163.2 367.51 162.383C365.83 161.963 364.675 161.59 364.045 161.263C363.462 160.913 363.17 160.412 363.17 159.758C363.17 159.035 363.421 158.469 363.923 158.061C364.424 157.652 365.095 157.448 365.935 157.448C366.915 157.448 367.679 157.717 368.228 158.253C368.776 158.79 369.05 159.525 369.05 160.458ZM553.67 160.458L560.565 160.108C560.518 157.448 559.585 155.372 557.765 153.878C555.898 152.362 553.448 151.603 550.415 151.603C547.358 151.603 545.002 152.397 543.345 153.983C541.712 155.547 540.895 157.542 540.895 159.968C540.895 162.418 541.77 164.215 543.52 165.358C545.013 166.338 547.043 167.143 549.61 167.773C551.22 168.193 552.363 168.619 553.04 169.051C553.717 169.482 554.055 170.002 554.055 170.608C554.055 172.008 553.075 172.708 551.115 172.708C549.948 172.708 548.998 172.399 548.263 171.781C547.528 171.162 547.172 170.352 547.195 169.348L540.3 169.698C540.277 172.498 541.257 174.68 543.24 176.243C545.247 177.783 547.872 178.553 551.115 178.553C553.962 178.553 556.318 177.865 558.185 176.488C560.028 175.088 560.95 173.012 560.95 170.258C560.95 168.182 560.244 166.554 558.833 165.376C557.421 164.197 555.187 163.2 552.13 162.383C550.45 161.963 549.295 161.59 548.665 161.263C548.082 160.913 547.79 160.412 547.79 159.758C547.79 159.035 548.041 158.469 548.543 158.061C549.044 157.652 549.715 157.448 550.555 157.448C551.535 157.448 552.299 157.717 552.848 158.253C553.396 158.79 553.67 159.525 553.67 160.458ZM184.57 151.988V178.168H177.815V167.808H169.065V178.168H162.31V151.988H169.065V161.823H177.815V151.988H184.57ZM219.61 151.988L209.705 168.578V178.168H202.95V168.578L193.01 151.988H200.85L206.31 161.858L211.77 151.988H219.61ZM228.05 151.988V178.168H240.405C243.088 178.168 245.212 177.474 246.775 176.086C248.338 174.697 249.12 172.767 249.12 170.293C249.12 168.893 248.834 167.674 248.262 166.636C247.691 165.597 246.927 164.833 245.97 164.343C247.393 162.99 248.105 161.357 248.105 159.443C248.105 157.017 247.353 155.167 245.848 153.896C244.343 152.624 242.295 151.988 239.705 151.988H228.05ZM280.94 178.168H273.31L268.655 169.418H265.785V178.168H259.03V151.988H270.86C273.543 151.988 275.667 152.764 277.23 154.316C278.793 155.867 279.575 157.997 279.575 160.703C279.575 164.273 278.268 166.793 275.655 168.263L280.94 178.168ZM296.835 178.168V151.988H290.08V178.168H296.835ZM307.305 178.168V151.988H318.4C322.273 151.988 325.447 153.167 327.92 155.523C330.393 157.857 331.63 161.042 331.63 165.078C331.63 169.115 330.393 172.3 327.92 174.633C325.447 176.99 322.273 178.168 318.4 178.168H307.305ZM410.39 151.988L400.485 168.578V178.168H393.73V168.578L383.79 151.988H391.63L397.09 161.858L402.55 151.988H410.39ZM472.49 151.988V157.973H464.335V178.168H457.58V157.973H449.39V151.988H472.49ZM496.855 178.168H503.61V151.988H496.855V161.823H488.105V151.988H481.35V178.168H488.105V167.808H496.855V178.168ZM531.23 151.988V157.973H520.835V161.893H529.725V167.738H520.835V172.183H531.265V178.168H514.08V151.988H531.23ZM577.195 178.168H570.44V151.988H577.195V178.168ZM596.38 172.183L606.355 151.988H586.615V157.973H596.205L586.23 178.168H606.215V172.183H596.38ZM632.75 151.988V157.973H622.355V161.893H631.245V167.738H622.355V172.183H632.785V178.168H615.6V151.988H632.75ZM657.01 178.168H664.64L659.355 168.263C661.968 166.793 663.275 164.273 663.275 160.703C663.275 157.997 662.493 155.867 660.93 154.316C659.367 152.764 657.243 151.988 654.56 151.988H642.73V178.168H649.485V169.418H652.355L657.01 178.168ZM318.47 157.798H314.06V172.358H318.47C320.547 172.358 322.145 171.746 323.265 170.521C324.385 169.296 324.945 167.482 324.945 165.078C324.945 162.675 324.385 160.861 323.265 159.636C322.145 158.411 320.547 157.798 318.47 157.798ZM234.805 157.973H238.935C240.452 157.973 241.21 158.638 241.21 159.968C241.21 161.275 240.428 161.928 238.865 161.928H234.805V157.973ZM265.785 157.973V163.433H270.055C270.895 163.433 271.548 163.188 272.015 162.698C272.482 162.208 272.715 161.543 272.715 160.703C272.715 159.863 272.482 159.198 272.015 158.708C271.548 158.218 270.895 157.973 270.055 157.973H265.785ZM653.755 163.433H649.485V157.973H653.755C654.595 157.973 655.248 158.218 655.715 158.708C656.182 159.198 656.415 159.863 656.415 160.703C656.415 161.543 656.182 162.208 655.715 162.698C655.248 163.188 654.595 163.433 653.755 163.433ZM234.805 167.668H239.565C241.338 167.668 242.225 168.427 242.225 169.943C242.225 171.437 241.35 172.183 239.6 172.183H234.805V167.668Z" fill="#2D86FE"/>
<path d="M217.919 23.368L199.007 24.328C199.007 21.768 198.255 19.752 196.751 18.28C195.247 16.808 193.151 16.072 190.463 16.072C188.159 16.072 186.319 16.632 184.943 17.752C183.567 18.872 182.879 20.424 182.879 22.408C182.879 24.2 183.679 25.576 185.279 26.536C187.007 27.432 190.175 28.456 194.783 29.608C203.167 31.848 209.295 34.584 213.167 37.816C217.039 41.048 218.975 45.512 218.975 51.208C218.975 58.76 216.447 64.456 211.391 68.296C206.271 72.072 199.807 73.96 191.999 73.96C183.103 73.96 175.903 71.848 170.399 67.624C164.959 63.336 162.271 57.352 162.335 49.672L181.247 48.712C181.183 51.464 182.159 53.688 184.175 55.384C186.191 57.08 188.799 57.928 191.999 57.928C197.375 57.928 200.063 56.008 200.063 52.168C200.063 50.504 199.135 49.08 197.279 47.896C195.423 46.712 192.287 45.544 187.871 44.392C180.831 42.664 175.263 40.456 171.167 37.768C166.367 34.632 163.967 29.704 163.967 22.984C163.967 16.328 166.207 10.856 170.687 6.56799C175.231 2.21599 181.695 0.0399933 190.079 0.0399933C198.399 0.0399984 205.119 2.12 210.239 6.28C215.231 10.376 217.791 16.072 217.919 23.368ZM408.479 32.008H443.519V37.96C443.519 48.648 440.383 57.32 434.111 63.976C427.839 70.632 419.359 73.96 408.671 73.96C397.727 73.96 388.735 70.632 381.695 63.976C374.783 57.384 371.327 48.392 371.327 37C371.327 25.608 374.783 16.616 381.695 10.024C388.735 3.368 397.727 0.0399984 408.671 0.0399933C417.183 0.0399984 424.447 2.168 430.463 6.424C436.479 10.68 440.575 16.616 442.751 24.232L423.551 27.4C421.247 20.104 416.223 16.456 408.479 16.456C402.591 16.456 398.079 18.184 394.943 21.64C391.807 25.096 390.239 30.216 390.239 37C390.239 43.784 391.807 48.904 394.943 52.36C398.079 55.816 402.591 57.544 408.479 57.544C415.583 57.544 420.351 54.504 422.783 48.424H408.479V32.008ZM273.599 1.096H292.031V42.376C292.031 52.296 289.215 60.04 283.583 65.608C278.015 71.176 270.271 73.96 260.351 73.96C250.367 73.96 242.559 71.176 236.927 65.608C231.295 60.04 228.479 52.296 228.479 42.376V1.096H247.007V42.088C247.007 52.392 251.455 57.544 260.351 57.544C269.183 57.544 273.599 52.392 273.599 42.088V1.096ZM343.487 72.904H364.415L349.919 45.736C357.087 41.704 360.671 34.792 360.671 25C360.671 17.576 358.527 11.736 354.239 7.48C349.951 3.224 344.127 1.096 336.767 1.096H304.319V72.904H322.847V48.904H330.719L343.487 72.904ZM501.407 17.512V1.096H454.367V72.904H501.503V56.488H472.895V44.296H497.279V28.264H472.895V17.512H501.407ZM596.639 1.096L577.055 36.424L597.887 72.904H576.479L563.327 48.712L550.079 72.904H528.671L549.503 36.424L529.919 1.096H551.327L563.327 24.04L575.231 1.096H596.639ZM664.511 17.512V1.096H601.151V17.512H623.615V72.904H642.143V17.512H664.511ZM322.847 32.488V17.512H334.559C336.863 17.512 338.655 18.184 339.935 19.528C341.215 20.872 341.855 22.696 341.855 25C341.855 27.304 341.215 29.128 339.935 30.472C338.655 31.816 336.863 32.488 334.559 32.488H322.847Z" fill="black"/>
</g>
</g>
<defs>
<clipPath id="clip0_325_6635">
<rect width="666" height="179" fill="white"/>
</clipPath>
</defs>
</svg>
