<?xml version="1.0" encoding="UTF-8"?>
<svg width="19px" height="25px" viewBox="0 0 19 25" version="1.1" xmlns="http://www.w3.org/2000/svg" xmlns:xlink="http://www.w3.org/1999/xlink">
    <title>Logo</title>
    <g id="Page-1" stroke="none" stroke-width="1" fill="none" fill-rule="evenodd">
        <g id="Logo" transform="translate(0.000015, 0.299957)" fill="#181818" fill-rule="nonzero">
            <path d="M13.2106301,3.48466158 L18.2413035,6.92842485 L18.2413035,0 L1.43149243,0 C0.638036609,0 0,0.638036997 0,1.43149243 L0,14.7811847 L3.44376171,15.7545991 C3.62372061,15.80368 3.80367988,15.6973386 3.86093958,15.5255614 L4.71983493,12.4171772 C4.77709472,12.1963177 5.03885357,12.0981589 5.23517231,12.2290392 L13.4723888,17.8977514 C13.7832271,18.1104312 13.5541882,18.6012297 13.1942715,18.4948883 L6.84662426,16.7198367 C6.66666591,16.6707559 6.47852641,16.7770972 6.43762671,16.9570541 L5.59509092,20.0654383 C5.53783112,20.2862978 5.26789276,20.3844567 5.07975328,20.2535763 L0,16.7361947 L0,24 L16.6952933,24 C17.5460086,24 18.2331251,23.3047043 18.2331251,22.4621687 L18.2331251,8.92433386 L14.8302639,7.97545781 C14.650305,7.92637826 14.4703461,8.03271748 14.4212658,8.20449758 L13.5378303,11.3210607 C13.4723899,11.5419209 13.2188122,11.6318986 13.0224932,11.5091987 L4.77709527,5.8323108 C4.4662564,5.6196313 4.69529533,5.1288339 5.05521367,5.23517347 L11.4028598,7.01022435 C11.5828187,7.05930449 11.7627776,6.95296455 11.8118579,6.78118516 L12.6952934,3.66462172 C12.7607325,3.45194221 13.0143126,3.35378226 13.2106301,3.48466158 L13.2106301,3.48466158 Z" id="XMLID_3_"></path>
        </g>
    </g>
</svg>