<?xml version="1.0" encoding="utf-8"?>
<svg width="908px" height="294px" viewBox="0 0 908 294" version="1.1" xmlns:xlink="http://www.w3.org/1999/xlink" xmlns="http://www.w3.org/2000/svg">
  <desc>Created with Lunacy</desc>
  <defs>
    <rect width="908" height="294" id="artboard_1" />
    <clipPath id="clip_1">
      <use xlink:href="#artboard_1" clip-rule="evenodd" />
    </clipPath>
  </defs>
  <g id="Artboard" clip-path="url(#clip_1)">
    <g id="XMLID_1_" transform="translate(0 0.30000305)">
      <g id="XMLID_2_">
        <path d="M161.5 42.6871L223 84.8732L223 0L17.5 0C7.8 0 0 7.81595 0 17.5358L0 181.07L42.1 192.994C44.3 193.595 46.5 192.292 47.2 190.188L57.7 152.11C58.4 149.405 61.6 148.202 64 149.806L164.7 219.247C168.5 221.853 165.7 227.865 161.3 226.562L83.7 204.818C81.5 204.217 79.2 205.519 78.7 207.724L68.4 245.802C67.7 248.507 64.4 249.71 62.1 248.106L0 205.018L0 294L204.1 294C214.5 294 222.9 285.483 222.9 275.162L222.9 109.323L181.3 97.6994C179.1 97.0981 176.9 98.4008 176.3 100.505L165.5 138.683C164.7 141.389 161.6 142.491 159.2 140.988L58.4 71.4458C54.6 68.8405 57.4 62.8282 61.8 64.1309L139.4 85.8753C141.6 86.4765 143.8 85.1738 144.4 83.0695L155.2 44.8916C156 42.2863 159.1 41.0838 161.5 42.6871L161.5 42.6871Z" id="XMLID_3_" fill="#FF9000" stroke="none" />
      </g>
      <g id="XMLID_9_" transform="translate(280.7984 2.6053078)">
        <path d="M92.9016 39.18L61.3016 40.7832C61.3016 36.4744 60.0016 33.1677 57.5016 30.6626C55.0016 28.1575 51.5016 26.955 47.0016 26.955C43.2016 26.955 40.1016 27.8569 37.8016 29.7607C35.5016 31.6646 34.4016 34.2699 34.4016 37.5767C34.4016 40.5828 35.7016 42.8875 38.4016 44.4908C41.3016 45.9939 46.6016 47.6973 54.3016 49.6012C68.3016 53.3088 78.5016 57.9182 85.0016 63.3293C91.5016 68.7403 94.7016 76.2556 94.7016 85.775C94.7016 98.4008 90.5016 107.92 82.0016 114.333C73.4016 120.646 62.6016 123.853 49.6016 123.853C34.7016 123.853 22.7016 120.346 13.5016 113.231C4.40161 106.016 -0.0983887 95.9959 0.00161743 83.1697L31.6016 81.5665C31.5016 86.1759 33.1016 89.8834 36.5016 92.6892C39.9016 95.4949 44.2016 96.8977 49.6016 96.8977C58.6016 96.8977 63.1016 93.6912 63.1016 87.2781C63.1016 84.4724 61.5016 82.0675 58.5016 80.1636C55.4016 78.1595 50.2016 76.2556 42.8016 74.2515C31.0016 71.3456 21.7016 67.638 14.9016 63.1288C6.90161 57.9182 2.90161 49.6012 2.90161 38.3783C2.90161 27.2556 6.60162 18.0368 14.1016 10.9223C21.7016 3.60735 32.5016 0 46.5016 0C60.4016 0 71.6016 3.50716 80.2016 10.4213C88.4016 17.4356 92.7016 26.955 92.9016 39.18L92.9016 39.18Z" id="XMLID_10_" fill="#FFFFFF" stroke="none" />
        <path d="M75.3 0L106.1 0L106.1 69.1411C106.1 85.7751 101.4 98.7014 92 108.02C82.7 117.339 69.8 122.049 53.2 122.049C36.5 122.049 23.5 117.339 14.1 108.02C4.70001 98.7014 0 85.7751 0 69.1411L0 0L31 0L31 68.6401C31 85.8752 38.4 94.4928 53.3 94.4928C68.1 94.4928 75.4 85.8752 75.4 68.6401L75.4 0L75.3 0Z" transform="translate(125.10162 1.9038948)" id="XMLID_12_" fill="#FFFFFF" stroke="none" />
        <path d="M65.4 120.245L100.4 120.245L76.1 74.7526C88.1 68.0388 94.1 56.5153 94.1 40.0818C94.1 27.6564 90.6 17.8364 83.4 10.7219C76.2 3.60737 66.5 0 54.2 0L0 0L0 120.245L31 120.245L31 80.0634L44.1 80.0634L65.4 120.245ZM31 52.5072L31 27.456L50.6 27.456C54.5 27.456 57.5 28.6585 59.6 30.863C61.7 33.0675 62.8 36.1738 62.8 39.9816C62.8 43.7894 61.7 46.8957 59.6 49.1002C57.4 51.4049 54.4 52.5072 50.6 52.5072L31 52.5072Z" transform="translate(266.10162 1.9038794)" id="XMLID_14_" fill="#FFFFFF" fill-rule="evenodd" stroke="none" />
        <path d="M62.1 53.6094L120.6 53.6094L120.6 63.5296C120.6 81.4662 115.4 95.8957 104.9 107.119C94.4 118.241 80.3 123.853 62.4 123.853C44.1 123.853 29.1 118.241 17.3 107.119C5.79999 96.0961 0 81.0654 0 61.9264C0 42.8875 5.79999 27.7566 17.3 16.7341C29.1 5.61144 44.1 0 62.4 0C76.6 0 88.8 3.60737 98.8 10.7219C108.8 17.8364 115.7 27.7566 119.3 40.4826L87.2 45.7934C83.4 33.5685 75 27.456 62 27.456C52.2 27.456 44.6 30.3619 39.4 36.1738C34.2 41.9857 31.5 50.5031 31.5 61.9264C31.5 73.2495 34.1 81.8671 39.4 87.6789C44.6 93.4908 52.2 96.3967 62 96.3967C73.9 96.3967 81.8 91.2863 85.9 81.1656L62 81.1656L62 53.6094L62.1 53.6094Z" transform="translate(392.50165 1.5258789E-05)" id="XMLID_17_" fill="#FFFFFF" stroke="none" />
        <path d="M78.5 1.529e-05L78.5 27.456L30.9 27.456L30.9 45.4929L71.6 45.4929L71.6 72.3477L30.9 72.3477L30.9 92.7894L78.7 92.7894L78.7 120.245L0 120.245L0 0L78.5 0L78.5 1.529e-05Z" transform="translate(545.7016 1.9038794)" id="XMLID_19_" fill="#FFFFFF" stroke="none" />
      </g>
      <g id="XMLID_20_" transform="translate(280.8 186.17996)">
        <path d="M28.2 0L28.2 9.82003L11.1 9.82003L11.1 16.1329L24.7 16.1329L24.7 25.9529L11.1 25.9529L11.1 43.0879L0 43.0879L0 0L28.2 0L28.2 0Z" transform="translate(0 0.9018402)" id="XMLID_24_" fill="#2D86FE" stroke="none" />
        <path d="M23.5 43.0879L36 43.0879L27.5 26.7546C31.7 24.3497 33.9 20.2413 33.9 14.3292C33.9 9.92024 32.6 6.41308 30 3.80776C27.4 1.30265 23.9 0 19.5 0L0 0L0 43.0879L11.1 43.0879L11.1 28.6585L15.8 28.6585L23.5 43.0879ZM11 18.8384L11 9.82002L18 9.82002C19.4001 9.82002 20.4001 10.2209 21.2 11.0225C21.9001 11.8241 22.3 12.9264 22.3 14.3292C22.3 15.7321 22 16.8343 21.2 17.636C20.5 18.4376 19.4 18.8384 18 18.8384L11 18.8384Z" transform="translate(32.899994 0.9018402)" id="XMLID_26_" fill="#2D86FE" fill-rule="evenodd" stroke="none" />
        <path d="M28.3 0.100241L28.3 9.92027L11.2 9.92027L11.2 16.3334L25.8 16.3334L25.8 25.953L11.2 25.953L11.2 33.2679L28.3 33.2679L28.3 43.0879L0 43.0879L0 0L28.3 0L28.3 0.100241Z" transform="translate(73.00003 0.80158997)" id="XMLID_29_" fill="#2D86FE" stroke="none" />
        <path d="M28.3 0.100241L28.3 9.92027L11.2 9.92027L11.2 16.3334L25.8 16.3334L25.8 25.953L11.2 25.953L11.2 33.2679L28.3 33.2679L28.3 43.0879L0 43.0879L0 0L28.3 0L28.3 0.100241Z" transform="translate(106.70001 0.80158997)" id="XMLID_31_" fill="#2D86FE" stroke="none" />
        <path d="M35.4 44.2904L41.2 36.5746L34.2 31.0634C35.5 28.2577 36.6 25.1514 37.5 21.6442L27.7 19.1391C27.2 21.4438 26.7 23.2475 26.2 24.6503L18.3 18.2373C18.2 18.137 17.8 17.8364 17 17.2352C16.9 17.135 16.7 17.0348 16.4 16.7342L16.1 16.4336L15.9 16.2332C15.9 16.133 15.8 16.133 15.8 16.0327L15.6 15.8323L15.4 15.6319C14.5 14.6299 14 13.6278 14 12.4254C14 11.3231 14.3 10.4213 14.9 9.82003C15.4 9.21879 16.3 8.91819 17.3 8.91819C19.5 8.91819 20.7 10.1207 21 12.5256L31.8 11.6237C31.2 8.01636 29.6 5.21065 27 3.10635C24.5 1.00204 21.2 0 17.4 0C13 0 9.5 1.10222 6.89999 3.30674C4.29999 5.51122 3 8.61756 3 12.6257C3 15.3313 4.10001 17.8364 6.20001 20.3415C2.10001 23.3476 0 27.0552 0 31.5644C0 35.272 1.39999 38.2781 4.10001 40.683C6.89999 43.0879 10.9 44.2904 16 44.2904C21.1 44.2904 25.5 42.5869 29 39.0798L35.4 44.2904ZM21.5 33.0675C19.9 34.3701 18.1 34.9714 16.2 34.9714C14.7 34.9714 13.5 34.5705 12.6 33.8691C11.7 33.0675 11.3 32.0654 11.3 30.6626C11.3 28.7587 11.9 27.3558 13.1 26.2536L21.5 33.0675Z" transform="translate(150.20004 0.30059814)" id="XMLID_33_" fill="#2D86FE" fill-rule="evenodd" stroke="none" />
        <path d="M39.1 6.11248C35 2.00409 29.5 0 22.8 0C16 0 10.5 2.1043 6.29999 6.11248C2.09998 10.2209 0 15.5317 0 22.2454C0 28.8589 2.09998 34.2699 6.29999 38.3783Q12.6 44.3906 22.8 44.3906C29.5 44.3906 34.9 42.3865 39.1 38.3783C43.4 34.2699 45.5 28.9591 45.5 22.2454C45.5 15.5317 43.4 10.1207 39.1 6.11248ZM14.4 13.227C16.5 11.0225 19.3 9.92027 22.8 9.92027C26.3 9.92027 29.1 11.0225 31.1 13.227C33.2 15.4315 34.2 18.4377 34.2 22.2454C34.2 26.0532 33.2 29.0593 31.1 31.2638C29.1 33.4683 26.3 34.5706 22.8 34.5706C19.3 34.5706 16.4999 33.4683 14.4 31.2638C12.3 29.0593 11.3 26.0532 11.3 22.2454C11.3 18.4377 12.3 15.4315 14.4 13.227Z" transform="translate(203.10004 0.20039368)" id="XMLID_36_" fill="#2D86FE" fill-rule="evenodd" stroke="none" />
        <path d="M0 0L0 43.0879L11.2 43.0879L11.2 28.7587L19.8 28.7587C24.2 28.7587 27.6 27.456 30.2 24.9509C32.8 22.3456 34.1 18.8384 34.1 14.4294C34.1 10.0204 32.8 6.51329 30.2 3.90797C27.6 1.30265 24.1 0 19.7 0L0 0ZM11.1 9.82002L18.3 9.82002C19.6 9.82002 20.7 10.2209 21.5001 11.1227C22.3 11.9243 22.7001 13.0266 22.7001 14.4294C22.7001 15.8323 22.3 16.9345 21.5001 17.7362C20.7001 18.5378 19.6 18.9386 18.3 18.9386L11.1 18.9386L11.1 9.82002Z" transform="translate(253.79999 0.9018402)" id="XMLID_41_" fill="#2D86FE" fill-rule="evenodd" stroke="none" />
        <path d="M28.3 0.100241L28.3 9.92027L11.2 9.92027L11.2 16.3334L25.8 16.3334L25.8 25.953L11.2 25.953L11.2 33.2679L28.3 33.2679L28.3 43.0879L0 43.0879L0 0L28.3 0L28.3 0.100241Z" transform="translate(291.5 0.80158997)" id="XMLID_44_" fill="#2D86FE" stroke="none" />
        <path d="M0 0L24.6 21.0429L24.6 0.901834L35.6999 0.901834L35.6999 44.8916L11.1 23.9489L11.1 43.9898L0 43.9898L0 0L0 0Z" transform="translate(325.40002 0)" id="XMLID_46_" fill="#2D86FE" stroke="none" />
        <path d="M33.2043 14.229L21.9044 14.8303C21.9044 13.3272 21.4044 12.1247 20.5043 11.2229C19.6043 10.3211 18.3043 9.92024 16.7043 9.92024C15.3043 9.92024 14.2043 10.2208 13.4044 10.9223C12.6044 11.6237 12.2043 12.5256 12.2043 13.728C12.2043 14.8303 12.7043 15.6319 13.6044 16.2331C14.6044 16.7341 16.5044 17.4356 19.3044 18.0368C24.3044 19.3394 28.0044 21.0429 30.3044 22.9468C32.6044 24.8507 33.8044 27.5562 33.8044 30.9632C33.8044 35.4724 32.3044 38.8793 29.3044 41.184C26.2044 43.4887 22.4044 44.591 17.7044 44.591C12.4044 44.591 8.10443 43.2883 4.80438 40.7832C1.50439 38.1779 -0.0956421 34.5705 0.00439453 29.9611L11.3044 29.3599C11.3044 31.0634 11.8044 32.366 13.1044 33.3681C14.3044 34.3701 15.9044 34.8712 17.8044 34.8712C21.0044 34.8712 22.6044 33.6687 22.6044 31.364C22.6044 30.3619 22.0044 29.4601 20.9044 28.7587C19.8044 28.0572 17.9044 27.3558 15.3044 26.6544C11.1044 25.6523 7.70441 24.2495 5.30438 22.6462C2.40436 20.7423 1.00439 17.8364 1.00439 13.728C1.00439 9.71982 2.30438 6.41308 5.00439 3.90797C7.70441 1.30265 11.6044 0 16.6044 0C21.6044 0 25.6044 1.20247 28.7043 3.70758C31.6043 6.41308 33.1043 9.82003 33.2043 14.229L33.2043 14.229Z" transform="translate(377.3957 0)" id="XMLID_48_" fill="#2D86FE" stroke="none" />
        <path d="M39.1 6.11248C35 2.00409 29.5 0 22.8 0C15.9999 0 10.4999 2.1043 6.29999 6.11248C2.09998 10.2209 0 15.5317 0 22.2454C0 28.8589 2.09998 34.2699 6.29999 38.3783Q12.6 44.3906 22.8 44.3906C29.5 44.3906 34.9 42.3865 39.1 38.3783C43.4 34.2699 45.5 28.9591 45.5 22.2454C45.5 15.5317 43.4 10.1207 39.1 6.11248ZM14.4 13.227C16.5 11.0225 19.3 9.92027 22.8 9.92027C26.3 9.92027 28.9999 11.0225 31.1 13.227C33.2 15.4315 34.2 18.4377 34.2 22.2454C34.2 26.0532 33.2 29.0593 31.1 31.2638C29.1 33.4683 26.3 34.5706 22.8 34.5706C19.3 34.5706 16.4999 33.4683 14.4 31.2638C12.3 29.0593 11.3 26.0532 11.3 22.2454C11.3 18.4377 12.3 15.4315 14.4 13.227Z" transform="translate(414.80005 0.20039368)" id="XMLID_51_" fill="#2D86FE" fill-rule="evenodd" stroke="none" />
        <path d="M27.1 0L38.1 0L38.1 24.7505C38.1 30.6626 36.4 35.3722 33 38.6789C29.7 41.9857 25 43.6892 19.1 43.6892C13.1 43.6892 8.39996 41.9857 5.09998 38.6789C1.69995 35.3722 0 30.6626 0 24.7505L0 0L11.1 0L11.1 24.6503C11.1 30.863 13.8 33.9693 19.1 33.9693C24.4 33.9693 27 30.863 27 24.6503L27 0L27.1 0Z" transform="translate(465.10004 0.9018402)" id="XMLID_54_" fill="#2D86FE" stroke="none" />
        <path d="M23.5 43.0879L36 43.0879L27.5 26.7546C31.7 24.3497 33.9 20.2413 33.9 14.3292C33.9 9.92024 32.6 6.41308 30 3.80776C27.4 1.30265 23.9 0 19.5 0L0 0L0 43.0879L11.1 43.0879L11.1 28.6585L15.8 28.6585L23.5 43.0879ZM11.1 18.8384L11.1 9.82002L18.1 9.82002C19.5 9.82002 20.5 10.2209 21.3 11.0225C21.9999 11.8241 22.4 12.9264 22.4 14.3292C22.4 15.7321 22.1 16.8343 21.3 17.636C20.6 18.4376 19.5 18.8384 18.1 18.8384L11.1 18.8384Z" transform="translate(509.40002 0.9018402)" id="XMLID_56_" fill="#2D86FE" fill-rule="evenodd" stroke="none" />
        <path d="M22.4 0C27.8 0 32.4 1.50307 36.3 4.5092C40.2001 7.51534 42.5001 11.6237 43.3 16.634L31.7001 17.7362C30.5001 12.4254 27.2001 9.82006 22.0001 9.82006C18.8 9.82006 16.2001 10.9223 14.3 13.227C12.4 15.4315 11.4 18.4377 11.4 22.1452C11.4 26.0532 12.4 29.0593 14.3 31.2638C16.3 33.4683 18.8 34.5705 22.0001 34.5705C24.6 34.5705 26.7001 33.8691 28.4001 32.5665C30.1001 31.2638 31.2001 29.2597 31.7001 26.7546L43.3 27.7567C42.5001 32.8671 40.2001 36.9755 36.3 40.0818C32.5001 43.0879 27.8 44.591 22.4 44.591C15.8 44.591 10.4 42.5869 6.20001 38.5787C2.10004 34.5705 0 29.2597 0 22.3456C0 15.5317 2.09998 10.1206 6.20001 6.11245C10.5 2.00409 15.9 0 22.4 0L22.4 0Z" transform="translate(548.3 0.20039368)" id="XMLID_59_" fill="#2D86FE" stroke="none" />
        <path d="M28.3 0.100241L28.3 9.92027L11.2 9.92027L11.2 16.3334L25.8 16.3334L25.8 25.953L11.2 25.953L11.2 33.2679L28.3 33.2679L28.3 43.0879L0 43.0879L0 0L28.3 0L28.3 0.100241Z" transform="translate(596.5 0.80158997)" id="XMLID_61_" fill="#2D86FE" stroke="none" />
      </g>
      <g id="XMLID_21_" transform="translate(280.8 248.90796)">
        <path d="M36.6 0L36.6 43.0879L25.5 43.0879L25.5 26.0532L11.1 26.0532L11.1 43.0879L0 43.0879L0 0L11.1 0L11.1 16.2331L25.5 16.2331L25.5 0L36.6 0L36.6 0Z" transform="translate(0 0.9018402)" id="XMLID_63_" fill="#2D86FE" stroke="none" />
        <path d="M43.7 0L27.4 27.3558L27.4 43.1881L16.3 43.1881L16.3 27.3558L0 0L12.9 0L21.9 16.2331L30.9 0L43.7 0L43.7 0Z" transform="translate(39.00003 0.9018402)" id="XMLID_65_" fill="#2D86FE" stroke="none" />
        <path d="M0 0L0 43.0879L20.3 43.0879C24.7 43.0879 28.2 41.9857 30.8 39.681C33.4 37.3763 34.7 34.27 34.7 30.1616C34.7 27.8569 34.2 25.8528 33.3 24.1493C32.3 22.4458 31.1 21.1432 29.5 20.3415C31.8 18.0368 33 15.3313 33 12.225C33 8.21678 31.8 5.21065 29.3 3.10635C26.8 1.00204 23.5 0 19.2 0L0 0ZM17.9 9.7198L11.1 9.7198L11.1 16.2331L17.8 16.2331C20.4001 16.2331 21.7 15.1308 21.7 13.0265C21.7 10.8221 20.4 9.7198 17.9 9.7198ZM11.2 25.7525L19 25.7525C21.9 25.7525 23.3 26.955 23.4 29.4601C23.4 31.9652 22 33.1677 19.1 33.1677L11.2 33.1677L11.2 25.7525Z" transform="translate(85 1.0020453)" id="XMLID_67_" fill="#2D86FE" fill-rule="evenodd" stroke="none" />
        <path d="M23.5 43.0879L36 43.0879L27.5 26.7546C31.7 24.3497 33.9 20.2413 33.9 14.3292C33.9 9.92024 32.6 6.41308 30 3.80776C27.4 1.30265 23.9 0 19.5 0L0 0L0 43.0879L11.1 43.0879L11.1 28.6585L15.8 28.6585L23.5 43.0879ZM11.1 18.7382L11.1 9.7198L18.1 9.7198C19.5001 9.7198 20.5001 10.1206 21.3 10.9223C22.0001 11.7239 22.4001 12.8261 22.4001 14.229C22.4001 15.6319 22.1 16.7341 21.3 17.5357C20.6 18.3374 19.5 18.7382 18.1 18.7382L11.1 18.7382Z" transform="translate(124.49997 1.0020453)" id="XMLID_71_" fill="#2D86FE" fill-rule="evenodd" stroke="none" />
        <path d="M11.1 0L11.1 43.0879L0 43.0879L0 0L11.1 0L11.1 0Z" transform="translate(164 0.9018402)" id="XMLID_74_" fill="#2D86FE" stroke="none" />
        <path d="M0 0L0 43.0879L18.2 43.0879C24.6 43.0879 29.8 41.1841 33.9 37.2761C38 33.4683 40 28.1575 40 21.544C40 14.9305 38 9.61961 33.9 5.81185C29.8 1.90388 24.6 0 18.2 0L0 0ZM11.1 9.51942L18.4 9.51942C21.8 9.51942 24.4 10.5215 26.3 12.6258C28.2 14.6299 29.1 17.5358 29.1 21.544C29.1 25.4519 28.1 28.4581 26.3 30.4622C24.4 32.4662 21.8 33.4683 18.4 33.4683L11.1 33.4683L11.1 9.51942Z" transform="translate(180.80002 1.0020453)" id="XMLID_76_" fill="#2D86FE" fill-rule="evenodd" stroke="none" />
        <path d="M33.2043 14.229L21.9044 14.8303C21.9044 13.3272 21.4044 12.1247 20.5043 11.2229C19.6043 10.3211 18.3043 9.92024 16.7043 9.92024C15.3043 9.92024 14.2043 10.2208 13.4044 10.9223C12.6044 11.6237 12.2043 12.5256 12.2043 13.728C12.2043 14.8303 12.7043 15.6319 13.6044 16.2331C14.6044 16.7341 16.5044 17.4356 19.3044 18.0368C24.3044 19.3394 28.0044 21.0429 30.3044 22.9468C32.6044 24.8507 33.8044 27.5562 33.8044 30.9632C33.8044 35.4724 32.3044 38.8793 29.3044 41.184C26.2044 43.4887 22.4044 44.591 17.7044 44.591C12.4044 44.591 8.10443 43.2883 4.80438 40.7832C1.50439 38.1779 -0.0956421 34.5705 0.00439453 29.9611L11.3044 29.3599C11.3044 31.0634 11.8044 32.366 13.1044 33.3681C14.3044 34.3701 15.9044 34.8712 17.8044 34.8712C21.0044 34.8712 22.6044 33.6687 22.6044 31.364C22.6044 30.3619 22.0044 29.4601 20.9044 28.7587C19.8044 28.0572 17.9044 27.3558 15.3044 26.6544C11.1044 25.6523 7.70441 24.2495 5.30438 22.6462C2.40436 20.7423 1.00439 17.8364 1.00439 13.728C1.00439 9.71982 2.30438 6.41308 5.00439 3.90797C7.70441 1.30265 11.6044 0 16.6044 0C21.6044 0 25.6044 1.20247 28.7043 3.70758C31.6044 6.41308 33.1044 9.82003 33.2043 14.229L33.2043 14.229Z" transform="translate(234.49567 0.10020447)" id="XMLID_79_" fill="#2D86FE" stroke="none" />
        <path d="M43.7 0L27.4 27.3558L27.4 43.1881L16.3 43.1881L16.3 27.3558L0 0L12.9 0L21.9 16.2331L30.9 0L43.7 0L43.7 0Z" transform="translate(269.10004 0.9018402)" id="XMLID_81_" fill="#2D86FE" stroke="none" />
        <path d="M0 0L24.6 21.0429L24.6 0.901834L35.6999 0.901834L35.6999 44.8916L11.1 23.9489L11.1 44.09L0 44.09L0 0L0 0Z" transform="translate(315.2 0)" id="XMLID_83_" fill="#2D86FE" stroke="none" />
        <path d="M38 0L38 9.82003L24.6 9.82003L24.6 43.0879L13.5 43.0879L13.5 9.82003L0 9.82003L0 0L38 0L38 0Z" transform="translate(353.90002 0.9018402)" id="XMLID_85_" fill="#2D86FE" stroke="none" />
        <path d="M36.6 0L36.6 43.0879L25.5 43.0879L25.5 26.0532L11.1 26.0532L11.1 43.0879L0 43.0879L0 0L11.1 0L11.1 16.2331L25.5 16.2331L25.5 0L36.6 0L36.6 0Z" transform="translate(394.90002 0.9018402)" id="XMLID_87_" fill="#2D86FE" stroke="none" />
        <path d="M28.2 0.100241L28.2 9.92027L11.1 9.92027L11.1 16.3334L25.7 16.3334L25.7 25.953L11.1 25.953L11.1 33.2679L28.2 33.2679L28.2 43.0879L0 43.0879L0 0L28.2 0L28.2 0.100241Z" transform="translate(437.2 0.80158997)" id="XMLID_89_" fill="#2D86FE" stroke="none" />
        <path d="M33.2043 14.229L21.9044 14.8303C21.9044 13.3272 21.4044 12.1247 20.5043 11.2229C19.6043 10.3211 18.3043 9.92024 16.7043 9.92024C15.3043 9.92024 14.2043 10.2208 13.4044 10.9223C12.6044 11.6237 12.2043 12.5256 12.2043 13.728C12.2043 14.8303 12.7043 15.6319 13.6044 16.2331C14.6044 16.7341 16.5044 17.4356 19.3044 18.0368C24.3044 19.3394 28.0044 21.0429 30.3044 22.9468C32.6044 24.8507 33.8044 27.5562 33.8044 30.9632C33.8044 35.4724 32.3044 38.8793 29.3044 41.184C26.2044 43.4887 22.4044 44.591 17.7044 44.591C12.4044 44.591 8.10443 43.2883 4.80438 40.7832C1.50439 38.1779 -0.0956421 34.5705 0.00439453 29.9611L11.3044 29.3599C11.3044 31.0634 11.8044 32.366 13.1044 33.3681C14.3044 34.3701 15.9044 34.8712 17.8044 34.8712C21.0044 34.8712 22.6044 33.6687 22.6044 31.364C22.6044 30.3619 22.0044 29.4601 20.9044 28.7587C19.8044 28.0572 17.9044 27.3558 15.3044 26.6544C11.1044 25.6523 7.70441 24.2495 5.30438 22.6462C2.40436 20.7423 1.00439 17.8364 1.00439 13.728C1.00439 9.71982 2.30438 6.41308 5.00439 3.90797C7.70441 1.30265 11.6044 0 16.6044 0C21.6044 0 25.6044 1.20247 28.7043 3.70758C31.6043 6.41308 33.2043 9.82003 33.2043 14.229L33.2043 14.229Z" transform="translate(468.8957 0.10020447)" id="XMLID_91_" fill="#2D86FE" stroke="none" />
        <path d="M11.1 0L11.1 43.0879L0 43.0879L0 0L11.1 0L11.1 0Z" transform="translate(506.90002 0.9018402)" id="XMLID_93_" fill="#2D86FE" stroke="none" />
        <path d="M33.1 0L16.7 33.2679L32.9 33.2679L32.9 43.0879L0 43.0879L16.4 9.82003L0.600037 9.82003L0.600037 0L33.1 0L33.1 0Z" transform="translate(521.3 0.9018402)" id="XMLID_95_" fill="#2D86FE" stroke="none" />
        <path d="M28.3 0.100241L28.3 9.92027L11.2 9.92027L11.2 16.3334L25.8 16.3334L25.8 25.953L11.2 25.953L11.2 33.2679L28.3 33.2679L28.3 43.0879L0 43.0879L0 0L28.3 0L28.3 0.100241Z" transform="translate(558 0.80158997)" id="XMLID_97_" fill="#2D86FE" stroke="none" />
        <path d="M23.5 43.0879L36 43.0879L27.5 26.7546C31.7 24.3497 33.9 20.2413 33.9 14.3292C33.9 9.92024 32.6 6.41308 30 3.80776C27.4 1.30265 23.9 0 19.5 0L0 0L0 43.0879L11.1 43.0879L11.1 28.6585L15.8 28.6585L23.5 43.0879ZM11.1 18.7382L11.1 9.7198L18.1 9.7198C19.5 9.7198 20.5 10.1206 21.3 10.9223C21.9999 11.7239 22.4 12.8261 22.4 14.229C22.4 15.6319 22.1 16.7341 21.3 17.5357C20.6 18.3374 19.5 18.7382 18.1 18.7382L11.1 18.7382Z" transform="translate(591.2 1.0020453)" id="XMLID_99_" fill="#2D86FE" fill-rule="evenodd" stroke="none" />
      </g>
    </g>
  </g>
</svg>